<?xml version="1.0"?>
<!-- Created by MetaPost 1.504 on 2012.12.09:1714 -->
<svg version="1.1" xmlns="http://www.w3.org/2000/svg" xmlns:xlink="http://www.w3.org/1999/xlink" width="91.70114" height="60.27563" viewBox="0 0 91.70114 60.27563">
<!-- Original BoundingBox: -45.85057 -30.13782 45.85057 30.13782 -->
  <path d="M0.49608 30.13782L0.49608 16.53133L18.63794 16.53133L2.60269 0.49608L43.7391 0.49608L27.7087 16.53133L91.20506 16.53133L91.20506 30.13782Z" style="fill: rgb(44.92188%,97.65625%,45.3125%);stroke: none;"></path>
  <path d="M91.20506 30.13782L91.20506 43.74431L73.0632 43.74431L89.09845 59.77956L47.96204 59.77956L63.99245 43.74431L0.49608 43.74431L0.49608 30.13782Z" style="fill: rgb(44.92188%,97.65625%,45.3125%);stroke: none;"></path>
  <path d="M0.49608 30.13782L0.49608 16.53133L18.63794 16.53133L2.60269 0.49608L43.7391 0.49608L27.7087 16.53133L91.20506 16.53133L91.20506 30.13782Z" style="stroke:rgb(0%,0%,0%); stroke-width: 0.99214;stroke-linecap: round;stroke-linejoin: round;stroke-miterlimit: 10;fill: none;"></path>
  <path d="M91.20506 30.13782L91.20506 43.74431L73.0632 43.74431L89.09845 59.77956L47.96204 59.77956L63.99245 43.74431L0.49608 43.74431L0.49608 30.13782Z" style="stroke:rgb(0%,0%,0%); stroke-width: 0.99214;stroke-linecap: round;stroke-linejoin: round;stroke-miterlimit: 10;fill: none;"></path>
</svg>
